Coordinates
version=1
nRows=13
nColumns=36
inDegrees=yes

Units are S.I. units (second, meters, Newtons, ...)
If the header above contains a line with 'inDegrees', this indicates whether rotational values are in degrees (yes) or radians (no).

endheader
time	pelvis_tilt	pelvis_list	pelvis_rotation	pelvis_tx	pelvis_ty	pelvis_tz	hip_flexion_r	hip_adduction_r	hip_rotation_r	knee_angle_r	knee_angle_r_beta	ankle_angle_r	subtalar_angle_r	mtp_angle_r	hip_flexion_l	hip_adduction_l	hip_rotation_l	knee_angle_l	knee_angle_l_beta	ankle_angle_l	subtalar_angle_l	mtp_angle_l	lumbar_extension	lumbar_bending	lumbar_rotation	arm_flex_r	arm_add_r	arm_rot_r	elbow_flex_r	pro_sup_r	arm_flex_l	arm_add_l	arm_rot_l	elbow_flex_l	pro_sup_l
      5.15416670	     -2.47728584	      1.71515650	     -1.04039481	      0.24393251	      0.83695078	     -0.03313858	     39.94257195	     -7.85786493	      4.64716087	     72.48833293	      1.26516008	     29.66814677	     -9.65863499	     -7.49999987	     41.52887079	     -6.87916044	      1.98185626	     72.73153678	      1.26940479	     23.70295302	    -11.68631711	     -7.49999987	    -26.85133095	      0.15029303	     -3.04700813	    210.29750317	   -160.35420603	    200.10048586	     45.91242692	     66.81406460	     31.81211332	    -19.71967536	     22.18267228	     44.58049910	     40.79187388
      5.15833330	     -2.29323592	      1.83939870	     -1.04823432	      0.24770123	      0.84048078	     -0.03845537	     39.36974133	     -8.16589346	      5.01500931	     71.71740910	      1.25170492	     29.09097933	    -10.17781777	     -7.49999987	     41.12775734	     -6.24766355	      2.00170888	     72.47560258	      1.26493789	     23.39221190	    -12.55107101	     -7.49999987	    -27.17865112	      0.43867418	     -3.07446961	    210.58364515	   -160.19503281	    200.28906798	     45.78946376	     66.87528292	     31.42398897	    -18.95065738	     22.03053409	     44.37482057	     40.60398500
      5.16250000	     -2.22575284	      1.98318217	     -1.14594487	      0.24821444	      0.84064396	     -0.03771187	     39.09671972	     -8.31249785	      5.36039389	     71.30408028	      1.24449097	     28.79863123	    -10.56071184	     -7.49999987	     40.92656858	     -5.84787742	      1.95852359	     72.40418323	      1.26369139	     23.30401681	    -13.20682686	     -7.49999987	    -27.40359475	      0.60545956	     -3.00650507	    210.64132123	   -160.09764193	    200.14710422	     45.99108357	     66.91382312	     31.04746691	    -18.21480495	     21.82548351	     44.10816321	     40.67829402
      5.16666670	     -2.20002166	      2.11464256	     -1.16357554	      0.25227406	      0.83792815	     -0.03344167	     38.88063770	     -8.27955422	      5.54642278	     71.48374220	      1.24762666	     29.10673489	    -10.53589653	     -7.49999987	     40.62462838	     -5.88741697	      1.85596572	     72.32837984	      1.26236837	     23.63283386	    -13.07663528	     -7.49999987	    -27.19112852	      0.59750894	     -3.06762224	    210.27055304	   -160.34434077	    200.19393604	     45.88151252	     66.95371311	     30.33665306	    -17.71692194	     21.85730870	     43.93671638	     40.58230740
      5.17083330	     -2.37622003	      2.13778328	     -1.19526653	      0.24814531	      0.84412496	     -0.03745815	     38.95440024	     -8.27160152	      5.52812683	     71.14660682	      1.24174254	     28.87633235	    -10.42401729	     -7.49999987	     40.55524179	     -5.66017830	      1.85011610	     71.84862749	      1.25399511	     23.63903021	    -13.12871239	     -7.49999987	    -27.21267183	      0.74686097	     -3.03908422	    210.22959150	   -160.50820099	    200.17169799	     45.86315602	     66.94768213	     29.91647316	    -17.18174218	     22.01138131	     43.96785135	     40.59809484
      5.17500000	     -2.34255181	      2.09606451	     -1.18132615	      0.24810029	      0.84439654	     -0.03795186	     38.74843744	     -8.31081962	      5.44669054	     70.78214902	      1.23538155	     28.60629425	    -10.19802295	     -7.49999987	     40.26432156	     -5.51370327	      2.02674518	     71.30410949	      1.24449148	     23.13307639	    -13.78934581	     -7.49999987	    -27.34384674	      0.90158435	     -2.86295105	    210.00225197	   -160.84243149	    198.91651579	     46.02145552	     66.38222179	     29.83159824	    -16.47468630	     21.85384086	     43.59732474	     41.90225691
      5.17916670	     -2.70040326	      2.00582789	     -1.17709415	      0.24865288	      0.84430394	     -0.03773365	     38.96148976	     -8.12915809	      5.47063059	     70.54536132	      1.23124883	     28.51595508	    -10.72155583	     -7.49999987	     40.55986827	     -5.49639371	      2.19608054	     71.05945515	      1.24022146	     22.79515823	    -14.30882404	     -7.49999987	    -27.02489522	      1.06425240	     -2.83510597	    209.87543623	   -161.23880309	    198.38404653	     45.82828956	     66.37307960	     29.60984750	    -16.11934044	     21.93799436	     43.21445032	     42.11666795
      5.18333330	     -2.86158034	      1.91762630	     -1.09962949	      0.24855820	      0.84763711	     -0.03878398	     38.85400902	     -8.06365151	      5.41665079	     70.00697227	      1.22185217	     28.23231680	    -11.07603812	     -7.49999987	     40.64019235	     -5.41690115	      2.36273875	     70.69763084	      1.23390643	     22.47672054	    -14.65961465	     -7.49999987	    -26.92220464	      1.16820158	     -2.79493360	    209.60124770	   -161.80858684	    197.21257673	     45.73001092	     66.13211506	     29.69968118	    -15.67080813	     21.99868720	     42.43598689	     43.10006267
      5.18750000	     -3.17861131	      1.80224047	     -1.07718570	      0.24897400	      0.85037054	     -0.03901628	     38.87071602	     -7.88883420	      5.38656033	     69.32594793	      1.20996605	     28.05111834	    -11.02040038	     -7.49999987	     40.63906223	     -5.58387289	      2.36496546	     70.07781901	      1.22308867	     22.42965356	    -14.43013556	     -7.49999987	    -26.45354112	      1.30081017	     -2.93817322	    209.45440566	   -162.30329787	    197.18087606	     44.99679511	     66.28042949	     29.30857277	    -15.49594083	     22.20747064	     41.85471449	     43.34825599
      5.19166670	     -3.31024781	      1.68825338	     -1.04511656	      0.24898164	      0.85046109	     -0.03956636	     38.70252839	     -7.73711876	      5.27845537	     68.83730306	      1.20143759	     28.02143869	    -11.02339681	     -7.49999987	     40.57352277	     -5.72636995	      2.23230821	     69.61491807	      1.21500953	     22.43831146	    -14.35831959	     -7.49999987	    -26.23997725	      1.44937649	     -3.10157346	    209.29714138	   -162.89105033	    196.87409797	     44.62309256	     66.39886960	     29.15045815	    -15.31085547	     22.32571120	     41.14451687	     43.40677052
      5.19583330	     -3.30447835	      1.70284309	     -1.05055789	      0.24912139	      0.85062937	     -0.03926420	     38.61112625	     -7.77921348	      5.27029381	     68.57096760	      1.19678916	     27.68166541	    -10.96050132	     -7.49999987	     40.25509467	     -5.68967209	      2.22660524	     69.05929020	      1.20531199	     22.48403207	    -14.25307038	     -7.49999987	    -26.04605728	      1.35314362	     -3.25923341	    208.47966707	   -163.58459115	    195.85545193	     45.15807400	     65.94394072	     28.90878440	    -15.20691874	     22.17063013	     40.35168717	     44.66048992
      5.20000000	     -3.50439966	      1.63784300	     -0.94628265	      0.24922866	      0.85663052	     -0.04004617	     38.44080221	     -7.81126916	      5.09125703	     67.82055524	      1.18369199	     27.30675813	    -10.70304768	     -7.49999987	     40.13082098	     -5.69350393	      2.16077568	     68.50490399	      1.19563613	     22.09980254	    -13.84792778	     -7.49999987	    -25.60835787	      1.38814270	     -3.21304462	    207.87546493	   -163.88223326	    195.98425659	     44.80286705	     66.00858366	     28.58933534	    -15.06042312	     22.26770743	     40.07836067	     44.61674678
      5.20416670	     -3.70196087	      1.59040097	     -0.83654905	      0.24979023	      0.85297680	     -0.03991243	     38.59650518	     -7.86304126	      4.96593262	     67.74705357	      1.18240914	     27.28409790	    -10.53308041	     -7.49999987	     40.39976202	     -5.79068611	      2.09844130	     68.59347023	      1.19718190	     22.23231352	    -13.09930006	     -7.49999987	    -24.94358500	      1.38344532	     -3.18272567	    207.66195262	   -164.47815576	    196.12874287	     43.09050338	     66.91852155	     28.71619798	    -14.64718880	     23.17286694	     37.90962035	     44.32238558
